<?xml version="1.0" encoding="UTF-8"?> <svg xmlns="http://www.w3.org/2000/svg" viewBox="0 0 100.00 100.00" data-guides="{&quot;vertical&quot;:[],&quot;horizontal&quot;:[]}"><defs></defs><path fill="#ffffff" stroke="none" fill-opacity="1" stroke-width="1" stroke-opacity="1" color="rgb(51, 51, 51)" fill-rule="evenodd" id="tSvg602916ea5f" title="Path 4" d="M76.88 49.92C76.6468 49.3638 76.1031 49.0013 75.5 49C69.7433 49 63.9867 49 58.23 49C61.5633 35.46 64.8967 21.92 68.23 8.38C68.4795 7.2526 67.415 6.2778 66.3139 6.6254C66.0819 6.6987 65.8712 6.8272 65.7 7C51.6133 21.1467 37.5267 35.2933 23.44 49.44C22.624 50.257 22.9985 51.651 24.114 51.9491C24.2399 51.9828 24.3697 51.9999 24.5 52C30.2567 52 36.0133 52 41.77 52C38.4367 65.54 35.1033 79.08 31.77 92.62C31.5205 93.7474 32.585 94.7222 33.6861 94.3746C33.9181 94.3013 34.1288 94.1728 34.3 94C48.3867 79.8533 62.4733 65.7067 76.56 51.56C76.9895 51.1289 77.1159 50.481 76.88 49.92ZM36 88.09C39.0533 75.68 42.1067 63.27 45.16 50.86C45.3952 49.9087 44.6699 48.9909 43.69 49C38.4967 49 33.3033 49 28.11 49C40.0733 36.97 52.0367 24.94 64 12.91C60.9533 25.32 57.9067 37.73 54.86 50.14C54.6268 51.0833 55.3383 51.996 56.31 52C61.5033 52 66.6967 52 71.89 52C59.9267 64.03 47.9633 76.06 36 88.09ZM71.06 68.94C70.2152 68.1528 68.8351 68.5753 68.5757 69.7005C68.4638 70.1861 68.6003 70.6955 68.94 71.06C72.94 75.06 76.94 79.06 80.94 83.06C81.7848 83.8472 83.1649 83.4247 83.4243 82.2995C83.5362 81.8139 83.3997 81.3045 83.06 80.94C79.06 76.94 75.06 72.94 71.06 68.94ZM28 30.5C29.1547 30.499 29.8753 29.2483 29.2971 28.2489C29.2318 28.136 29.1521 28.0322 29.06 27.94C25.06 23.94 21.06 19.94 17.06 15.94C16.2152 15.1528 14.8351 15.5753 14.5757 16.7005C14.4638 17.1861 14.6003 17.6955 14.94 18.06C18.94 22.06 22.94 26.06 26.94 30.06C27.221 30.3414 27.6023 30.4996 28 30.5Z"></path><path fill="#ffffff" stroke="none" fill-opacity="1" stroke-width="1" stroke-opacity="1" color="rgb(51, 51, 51)" fill-rule="evenodd" id="tSvg7e808c9978" title="Path 5" d="M68.44 29.56C69.0256 30.1449 69.9744 30.1449 70.56 29.56C74.56 25.56 78.56 21.56 82.56 17.56C83.3472 16.7152 82.9247 15.3351 81.7995 15.0757C81.3139 14.9638 80.8045 15.1003 80.44 15.44C76.44 19.44 72.44 23.44 68.44 27.44C67.8551 28.0256 67.8551 28.9744 68.44 29.56ZM27.44 69.44C23.44 73.44 19.44 77.44 15.44 81.44C14.5952 82.2272 14.9194 83.6337 16.0235 83.9717C16.5722 84.1397 17.1688 83.9799 17.56 83.56C21.56 79.56 25.56 75.56 29.56 71.56C30.3472 70.7152 29.9247 69.3351 28.7995 69.0757C28.3139 68.9638 27.8045 69.1003 27.44 69.44ZM18.5 60C16.5755 60 15.3727 62.0833 16.3349 63.75C16.7815 64.5235 17.6068 65 18.5 65C20.4245 65 21.6273 62.9167 20.6651 61.25C20.2185 60.4765 19.3932 60 18.5 60ZM9.5 53C7.5755 53 6.3727 55.0833 7.3349 56.75C7.7815 57.5235 8.6068 58 9.5 58C11.4245 58 12.6273 55.9167 11.6651 54.25C11.2185 53.4765 10.3932 53 9.5 53ZM89.5 40C87.5755 40 86.3727 42.0833 87.3349 43.75C87.7815 44.5235 88.6068 45 89.5 45C91.4245 45 92.6273 42.9167 91.6651 41.25C91.2185 40.4765 90.3932 40 89.5 40ZM31.5 15C29.5755 15 28.3727 17.0833 29.3349 18.75C29.7815 19.5235 30.6068 20 31.5 20C33.4245 20 34.6273 17.9167 33.6651 16.25C33.2185 15.4765 32.3932 15 31.5 15Z"></path></svg> 