<?xml version="1.0" encoding="UTF-8"?> <svg xmlns="http://www.w3.org/2000/svg" viewBox="0 0 100.00 100.00" data-guides="{&quot;vertical&quot;:[],&quot;horizontal&quot;:[]}"><defs></defs><path fill="#fffefe" stroke="none" fill-opacity="1" stroke-width="1" stroke-opacity="1" color="rgb(51, 51, 51)" fill-rule="evenodd" id="tSvg953959fe2a" title="Path 3" d="M50.807 26.222C37.445 26.222 26.574 37.097 26.574 50.465C26.574 58.161 30.216 65.345 36.361 69.912C36.361 75.3703 36.361 80.8287 36.361 86.287C36.361 87.1154 37.0326 87.787 37.861 87.787C38.6643 87.787 39.4677 87.787 40.271 87.787C41.003 92.954 45.442 96.944 50.807 96.944C56.174 96.944 60.616 92.954 61.349 87.787C62.057 87.787 62.765 87.787 63.473 87.787C64.3014 87.787 64.973 87.1154 64.973 86.287C64.973 80.8987 64.973 75.5103 64.973 70.122C71.2947 65.5692 75.0429 58.2555 75.047 50.465C75.047 37.097 64.173 26.222 50.807 26.222ZM50.807 93.945C47.1 93.945 44.001 91.294 43.303 87.788C48.308 87.788 53.313 87.788 58.318 87.788C57.618 91.293 54.517 93.945 50.807 93.945ZM61.973 84.787C54.4357 84.787 46.8983 84.787 39.361 84.787C39.361 80.071 39.361 75.355 39.361 70.639C46.8983 70.639 54.4357 70.639 61.973 70.639C61.973 75.355 61.973 80.071 61.973 84.787ZM55.137 51.785C55.137 57.0697 55.137 62.3543 55.137 67.639C52.1547 67.639 49.1723 67.639 46.19 67.639C46.19 62.3543 46.19 57.0697 46.19 51.785C49.1723 51.785 52.1547 51.785 55.137 51.785ZM63.289 67.639C61.5717 67.639 59.8543 67.639 58.137 67.639C58.137 62.3543 58.137 57.0697 58.137 51.785C59.7153 51.785 61.2937 51.785 62.872 51.785C64.0267 51.785 64.7484 50.535 64.171 49.535C63.9031 49.0709 63.4079 48.785 62.872 48.785C54.735 48.785 46.598 48.785 38.461 48.785C37.3063 48.785 36.5846 50.035 37.162 51.035C37.4299 51.4991 37.9251 51.785 38.461 51.785C40.037 51.785 41.613 51.785 43.189 51.785C43.189 57.0697 43.189 62.3543 43.189 67.639C41.5703 67.639 39.9517 67.639 38.333 67.639C32.8299 63.6486 29.5725 57.2626 29.573 50.465C29.573 38.752 39.098 29.222 50.806 29.222C62.517 29.222 72.046 38.751 72.046 50.465C72.0431 57.2611 68.7878 63.6453 63.289 67.639ZM50.663 21.182C51.4914 21.182 52.163 20.5104 52.163 19.682C52.163 14.6397 52.163 9.5973 52.163 4.555C52.163 3.4003 50.913 2.6786 49.913 3.256C49.4489 3.5239 49.163 4.0191 49.163 4.555C49.163 9.5973 49.163 14.6397 49.163 19.682C49.163 20.5104 49.8346 21.182 50.663 21.182ZM17.628 48.785C12.5857 48.785 7.5433 48.785 2.501 48.785C1.3463 48.785 0.6246 50.035 1.202 51.035C1.4699 51.4991 1.9651 51.785 2.501 51.785C7.5433 51.785 12.5857 51.785 17.628 51.785C18.7827 51.785 19.5044 50.535 18.927 49.535C18.6591 49.0709 18.1639 48.785 17.628 48.785ZM97.5 48.785C92.46 48.785 87.42 48.785 82.38 48.785C81.2253 48.785 80.5036 50.035 81.081 51.035C81.3489 51.4991 81.8441 51.785 82.38 51.785C87.42 51.785 92.46 51.785 97.5 51.785C98.6547 51.785 99.3764 50.535 98.799 49.535C98.5311 49.0709 98.0359 48.785 97.5 48.785ZM26.787 28.851C27.071 29.1 27.423 29.221 27.773 29.221C28.9277 29.2206 29.649 27.9704 29.0713 26.9706C28.9888 26.8278 28.8833 26.6995 28.759 26.591C24.9613 23.2757 21.1637 19.9603 17.366 16.645C16.5113 15.8685 15.1366 16.3084 14.8915 17.4368C14.7732 17.9816 14.9667 18.547 15.394 18.905C19.1917 22.2203 22.9893 25.5357 26.787 28.851ZM70.981 29.221C71.331 29.221 71.682 29.099 71.966 28.851C75.7657 25.5357 79.5653 22.2203 83.365 18.905C83.989 18.36 84.0535 17.4125 83.509 16.788C82.9649 16.163 82.0168 16.0985 81.393 16.644C77.5933 19.9593 73.7937 23.2747 69.994 26.59C69.1241 27.3505 69.4038 28.7676 70.4974 29.1406C70.6531 29.1937 70.8165 29.2209 70.981 29.221Z"></path></svg> 